<?xml version="1.0" standalone="no"?><!-- Generator: Gravit.io --><svg xmlns="http://www.w3.org/2000/svg" xmlns:xlink="http://www.w3.org/1999/xlink" style="isolation:isolate" viewBox="3516.185 1763.251 715.63 732.63" width="715.63" height="732.63"><g id="blue"><path d=" M 3516.185 2138.066 C 3516.185 1940.582 3676.516 1780.251 3874 1780.251 C 4071.484 1780.251 4231.815 1940.582 4231.815 2138.066 C 4231.815 2335.55 4071.484 2495.881 3874 2495.881 C 3676.516 2495.881 3516.185 2335.55 3516.185 2138.066 Z " fill="rgb(153,211,219)"/><clipPath id="_clipPath_zeOCDK0m4XkgdZ2uC7Rs7F51d4KXWJk4"><path d=" M 3516.185 2138.066 C 3516.185 1940.582 3676.516 1780.251 3874 1780.251 C 4071.484 1780.251 4231.815 1940.582 4231.815 2138.066 C 4231.815 2335.55 4071.484 2495.881 3874 2495.881 C 3676.516 2495.881 3516.185 2335.55 3516.185 2138.066 Z " fill="rgb(153,211,219)"/></clipPath><g clip-path="url(#_clipPath_zeOCDK0m4XkgdZ2uC7Rs7F51d4KXWJk4)"><path d="M 3779.948 2313.78 L 4028.311 2313.78 C 4052.439 2313.78 4072.028 2329.234 4072.028 2348.268 L 4072.028 2348.268 C 4072.028 2367.303 4052.439 2382.757 4028.311 2382.757 L 3779.948 2382.757 C 3755.82 2382.757 3736.231 2367.303 3736.231 2348.268 L 3736.231 2348.268 C 3736.231 2329.234 3755.82 2313.78 3779.948 2313.78 Z" style="stroke:none;fill:#8DD0DF;stroke-miterlimit:10;"/><path d="M 3532.679 2104.632 L 3964.116 2104.632 C 4012.372 2104.632 4051.55 2135.539 4051.55 2173.608 L 4051.55 2173.608 C 4051.55 2211.677 4012.372 2242.584 3964.116 2242.584 L 3532.679 2242.584 C 3484.422 2242.584 3445.244 2211.677 3445.244 2173.608 L 3445.244 2173.608 C 3445.244 2135.539 3484.422 2104.632 3532.679 2104.632 Z" style="stroke:none;fill:#8DD0DF;stroke-miterlimit:10;"/><path d="M 3884.562 1945.737 L 4239.631 1945.737 C 4269.791 1945.737 4294.277 1965.054 4294.277 1988.847 L 4294.277 1988.847 C 4294.277 2012.64 4269.791 2031.957 4239.631 2031.957 L 3884.562 2031.957 C 3854.402 2031.957 3829.916 2012.64 3829.916 1988.847 L 3829.916 1988.847 C 3829.916 1965.054 3854.402 1945.737 3884.562 1945.737 Z" style="stroke:none;fill:#8DD0DF;stroke-miterlimit:10;"/><path d="M 3601.12 1829.084 L 3871.341 1829.084 C 3889.438 1829.084 3904.129 1840.674 3904.129 1854.95 L 3904.129 1854.95 C 3904.129 1869.226 3889.438 1880.816 3871.341 1880.816 L 3601.12 1880.816 C 3583.024 1880.816 3568.332 1869.226 3568.332 1854.95 L 3568.332 1854.95 C 3568.332 1840.674 3583.024 1829.084 3601.12 1829.084 Z" style="stroke:none;fill:#8DD0DF;stroke-miterlimit:10;"/><path d=" M 3817.589 1784.751 C 3835.952 1781.766 3854.8 1780.251 3874 1780.251 C 4071.484 1780.251 4231.815 1940.582 4231.815 2138.066 C 4231.815 2335.55 4071.484 2495.881 3874 2495.881 C 3854.8 2495.881 3835.952 2494.366 3817.589 2491.381 C 3988.322 2464.355 4118.994 2316.35 4118.994 2138.066 C 4118.994 1959.782 3988.322 1811.778 3817.589 1784.751 Z " fill="rgb(141,208,223)"/><path d="M 3767.781 2325.947 L 4016.144 2325.947 C 4040.272 2325.947 4059.861 2341.401 4059.861 2360.435 L 4059.861 2360.435 C 4059.861 2379.47 4040.272 2394.923 4016.144 2394.923 L 3767.781 2394.923 C 3743.653 2394.923 3724.064 2379.47 3724.064 2360.435 L 3724.064 2360.435 C 3724.064 2341.401 3743.653 2325.947 3767.781 2325.947 Z" style="stroke:none;fill:#5EC5ED;stroke-miterlimit:10;"/><path d="M 3508.345 2128.965 L 3939.783 2128.965 C 3988.039 2128.965 4027.217 2159.872 4027.217 2197.941 L 4027.217 2197.941 C 4027.217 2236.01 3988.039 2266.918 3939.783 2266.918 L 3508.345 2266.918 C 3460.089 2266.918 3420.911 2236.01 3420.911 2197.941 L 3420.911 2197.941 C 3420.911 2159.872 3460.089 2128.965 3508.345 2128.965 Z" style="stroke:none;fill:#5EC5ED;stroke-miterlimit:10;"/><path d="M 3866.312 1963.987 L 4221.381 1963.987 C 4251.541 1963.987 4276.027 1983.304 4276.027 2007.097 L 4276.027 2007.097 C 4276.027 2030.89 4251.541 2050.207 4221.381 2050.207 L 3866.312 2050.207 C 3836.152 2050.207 3811.666 2030.89 3811.666 2007.097 L 3811.666 2007.097 C 3811.666 1983.304 3836.152 1963.987 3866.312 1963.987 Z" style="stroke:none;fill:#5EC5ED;stroke-miterlimit:10;"/><path d="M 3588.953 1841.25 L 3859.175 1841.25 C 3877.271 1841.25 3891.963 1852.84 3891.963 1867.116 L 3891.963 1867.116 C 3891.963 1881.392 3877.271 1892.983 3859.175 1892.983 L 3588.953 1892.983 C 3570.857 1892.983 3556.166 1881.392 3556.166 1867.116 L 3556.166 1867.116 C 3556.166 1852.84 3570.857 1841.25 3588.953 1841.25 Z" style="stroke:none;fill:#5EC5ED;stroke-miterlimit:10;"/></g></g></svg>