<?xml version="1.0" standalone="no"?><!-- Generator: Gravit.io --><svg xmlns="http://www.w3.org/2000/svg" xmlns:xlink="http://www.w3.org/1999/xlink" style="isolation:isolate" viewBox="3220.374 1024.146 924.844 941.844" width="924.844" height="941.844"><g id="mossy"><path d=" M 3220.374 1503.568 C 3220.374 1248.35 3427.578 1041.146 3682.796 1041.146 C 3938.013 1041.146 4145.218 1248.35 4145.218 1503.568 C 4145.218 1758.785 3938.013 1965.99 3682.796 1965.99 C 3427.578 1965.99 3220.374 1758.785 3220.374 1503.568 Z " fill="rgb(136,197,145)"/><clipPath id="_clipPath_UEmsUGnc7uxk8WMYOguo53peTxakQjNe"><path d=" M 3220.374 1503.568 C 3220.374 1248.35 3427.578 1041.146 3682.796 1041.146 C 3938.013 1041.146 4145.218 1248.35 4145.218 1503.568 C 4145.218 1758.785 3938.013 1965.99 3682.796 1965.99 C 3427.578 1965.99 3220.374 1758.785 3220.374 1503.568 Z " fill="rgb(136,197,145)"/></clipPath><g clip-path="url(#_clipPath_UEmsUGnc7uxk8WMYOguo53peTxakQjNe)"><path d="M 3549.321 1730.652 L 3894.146 1730.652 C 3918.745 1730.652 3938.717 1750.623 3938.717 1775.222 L 3938.717 1775.222 C 3938.717 1799.822 3918.745 1819.793 3894.146 1819.793 L 3549.321 1819.793 C 3524.721 1819.793 3504.75 1799.822 3504.75 1775.222 L 3504.75 1775.222 C 3504.75 1750.623 3524.721 1730.652 3549.321 1730.652 Z" style="stroke:none;fill:#72B587;stroke-miterlimit:10;"/><path d="M 3217.836 1460.359 L 3823.111 1460.359 C 3872.31 1460.359 3912.253 1500.302 3912.253 1549.5 L 3912.253 1549.5 C 3912.253 1598.699 3872.31 1638.642 3823.111 1638.642 L 3217.836 1638.642 C 3168.637 1638.642 3128.694 1598.699 3128.694 1549.5 L 3128.694 1549.5 C 3128.694 1500.302 3168.637 1460.359 3217.836 1460.359 Z" style="stroke:none;fill:#72B587;stroke-miterlimit:10;"/><path d="M 3681.537 1255.011 L 4170.227 1255.011 C 4200.976 1255.011 4225.94 1279.976 4225.94 1310.725 L 4225.94 1310.725 C 4225.94 1341.474 4200.976 1366.438 4170.227 1366.438 L 3681.537 1366.438 C 3650.788 1366.438 3625.824 1341.474 3625.824 1310.725 L 3625.824 1310.725 C 3625.824 1279.976 3650.788 1255.011 3681.537 1255.011 Z" style="stroke:none;fill:#72B587;stroke-miterlimit:10;"/><path d="M 3321.195 1104.255 L 3688.305 1104.255 C 3706.755 1104.255 3721.733 1119.233 3721.733 1137.683 L 3721.733 1137.683 C 3721.733 1156.132 3706.755 1171.111 3688.305 1171.111 L 3321.195 1171.111 C 3302.745 1171.111 3287.766 1156.132 3287.766 1137.683 L 3287.766 1137.683 C 3287.766 1119.233 3302.745 1104.255 3321.195 1104.255 Z" style="stroke:none;fill:#72B587;stroke-miterlimit:10;"/><path d=" M 3609.894 1046.962 C 3633.624 1043.104 3657.983 1041.146 3682.796 1041.146 C 3938.013 1041.146 4145.218 1248.35 4145.218 1503.568 C 4145.218 1758.785 3938.013 1965.99 3682.796 1965.99 C 3657.983 1965.99 3633.624 1964.031 3609.894 1960.173 C 3830.54 1925.246 3999.414 1733.972 3999.414 1503.568 C 3999.414 1273.163 3830.54 1081.889 3609.894 1046.962 Z " fill="rgb(114,181,135)"/><path d="M 3533.597 1746.375 L 3878.422 1746.375 C 3903.022 1746.375 3922.993 1766.347 3922.993 1790.946 L 3922.993 1790.946 C 3922.993 1815.545 3903.022 1835.517 3878.422 1835.517 L 3533.597 1835.517 C 3508.998 1835.517 3489.026 1815.545 3489.026 1790.946 L 3489.026 1790.946 C 3489.026 1766.347 3508.998 1746.375 3533.597 1746.375 Z" style="stroke:none;fill:#1A7461;stroke-miterlimit:10;"/><path d="M 3186.389 1491.806 L 3791.664 1491.806 C 3840.863 1491.806 3880.806 1531.749 3880.806 1580.947 L 3880.806 1580.947 C 3880.806 1630.146 3840.863 1670.089 3791.664 1670.089 L 3186.389 1670.089 C 3137.19 1670.089 3097.247 1630.146 3097.247 1580.947 L 3097.247 1580.947 C 3097.247 1531.749 3137.19 1491.806 3186.389 1491.806 Z" style="stroke:none;fill:#1A7461;stroke-miterlimit:10;"/><path d="M 3657.952 1278.597 L 4146.642 1278.597 C 4177.391 1278.597 4202.355 1303.561 4202.355 1334.31 L 4202.355 1334.31 C 4202.355 1365.059 4177.391 1390.024 4146.642 1390.024 L 3657.952 1390.024 C 3627.203 1390.024 3602.238 1365.059 3602.238 1334.31 L 3602.238 1334.31 C 3602.238 1303.561 3627.203 1278.597 3657.952 1278.597 Z" style="stroke:none;fill:#1A7461;stroke-miterlimit:10;"/><path d="M 3305.471 1119.978 L 3672.582 1119.978 C 3691.031 1119.978 3706.01 1134.957 3706.01 1153.406 L 3706.01 1153.406 C 3706.01 1171.856 3691.031 1186.834 3672.582 1186.834 L 3305.471 1186.834 C 3287.022 1186.834 3272.043 1171.856 3272.043 1153.406 L 3272.043 1153.406 C 3272.043 1134.957 3287.022 1119.978 3305.471 1119.978 Z" style="stroke:none;fill:#1A7461;stroke-miterlimit:10;"/></g></g></svg>