<?xml version="1.0" standalone="no"?><!-- Generator: Gravit.io --><svg xmlns="http://www.w3.org/2000/svg" xmlns:xlink="http://www.w3.org/1999/xlink" style="isolation:isolate" viewBox="731.676 1513.709 1989.584 892.499" width="1989.584" height="892.499"><g id="rocket"><g id="rocket"><path d=" M 1010.19 1809.223 C 1052.411 1809.211 1092.905 1825.978 1122.76 1855.832 C 1152.614 1885.687 1169.381 1926.181 1169.369 1968.402 C 1169.381 2010.622 1152.614 2051.117 1122.76 2080.971 C 1092.905 2110.826 1052.411 2127.593 1010.19 2127.581 C 922.258 2127.553 731.676 1968.374 731.676 1968.374 C 731.676 1968.374 922.258 1809.251 1010.19 1809.223 Z " fill="rgb(214,23,74)"/><path d=" M 1010.19 1888.855 C 1038.95 1888.355 1065.741 1903.411 1080.266 1928.238 C 1094.792 1953.064 1094.792 1983.796 1080.266 2008.622 C 1065.741 2033.449 1038.95 2048.505 1010.19 2048.005 C 966.238 2047.949 890.715 1968.486 890.715 1968.486 C 890.715 1968.486 966.097 1888.939 1010.162 1888.826 L 1010.19 1888.855 Z " fill="rgb(251,201,126)"/><path d=" M 2283.426 1729.675 C 2164.203 1729.591 1129.553 1729.647 1129.553 1729.647 L 1129.553 2207.156 L 2283.426 2207.128 C 2346.372 2207.213 2464.328 2140.975 2562.053 2078.198 L 2562.053 1858.549 C 2464.243 1795.913 2346.287 1729.619 2283.426 1729.619 L 2283.426 1729.675 Z " fill="rgb(214,23,74)"/><path d=" M 1129.441 2406.208 L 1209.045 2207.241 L 1686.61 2207.128 L 1407.983 2406.18 L 1129.441 2406.208 Z  M 1129.553 1530.709 L 1209.157 1729.675 L 1686.61 1729.675 L 1408.068 1530.709 L 1129.553 1530.709 Z  M 2562.053 1858.606 L 2562.081 2078.226 C 2649.788 2021.921 2721.26 1968.289 2721.26 1968.289 C 2721.26 1968.289 2649.788 1915.108 2562.053 1858.606 Z  M 1129.441 2207.269 L 1049.865 2127.694 L 1049.95 1809.251 L 1129.553 1729.647 L 1129.441 2207.269 Z " fill="rgb(255,222,133)"/><path d=" M 2100.976 2024.679 C 2069.883 2055.772 2019.544 2055.8 1988.423 2024.679 C 1957.342 1993.598 1957.342 1943.206 1988.423 1912.125 C 2019.504 1881.044 2069.896 1881.044 2100.976 1912.125 C 2132.097 1943.246 2132.097 1993.558 2100.976 2024.679 Z  M 1822.462 2024.679 C 1791.381 2055.76 1740.989 2055.76 1709.909 2024.679 C 1678.828 1993.598 1678.828 1943.206 1709.909 1912.125 C 1740.989 1881.044 1791.381 1881.044 1822.462 1912.125 C 1853.543 1943.206 1853.543 1993.598 1822.462 2024.679 Z  M 1543.948 2024.679 C 1512.827 2055.8 1462.487 2055.772 1431.394 2024.679 C 1400.273 1993.558 1400.273 1943.246 1431.394 1912.125 C 1462.475 1881.044 1512.867 1881.044 1543.948 1912.125 C 1575.029 1943.206 1575.029 1993.598 1543.948 2024.679 Z " fill="rgb(251,201,126)"/></g></g></svg>