<?xml version="1.0" standalone="no"?><!-- Generator: Gravit.io --><svg xmlns="http://www.w3.org/2000/svg" xmlns:xlink="http://www.w3.org/1999/xlink" style="isolation:isolate" viewBox="3734.175 548.536 1214.715 1231.715" width="1214.715" height="1231.715"><g id="sandy"><path d=" M 3734.175 1172.893 C 3734.175 837.684 4006.323 565.536 4341.532 565.536 C 4676.742 565.536 4948.89 837.684 4948.89 1172.893 C 4948.89 1508.103 4676.742 1780.251 4341.532 1780.251 C 4006.323 1780.251 3734.175 1508.103 3734.175 1172.893 Z " fill="rgb(255,222,133)"/><clipPath id="_clipPath_qD13tVvhD8wV0PFdy30GRBe7JIJIGXM4"><path d=" M 3734.175 1172.893 C 3734.175 837.684 4006.323 565.536 4341.532 565.536 C 4676.742 565.536 4948.89 837.684 4948.89 1172.893 C 4948.89 1508.103 4676.742 1780.251 4341.532 1780.251 C 4006.323 1780.251 3734.175 1508.103 3734.175 1172.893 Z " fill="rgb(255,222,133)"/></clipPath><g clip-path="url(#_clipPath_qD13tVvhD8wV0PFdy30GRBe7JIJIGXM4)"><path d="M 4165.447 1471.152 L 4619.902 1471.152 C 4651.783 1471.152 4677.666 1497.035 4677.666 1528.916 L 4677.666 1530.468 C 4677.666 1562.349 4651.783 1588.233 4619.902 1588.233 L 4165.447 1588.233 C 4133.566 1588.233 4107.682 1562.349 4107.682 1530.468 L 4107.682 1528.916 C 4107.682 1497.035 4133.566 1471.152 4165.447 1471.152 Z" style="stroke:none;fill:#FBC97E;stroke-miterlimit:10;"/><path d="M 3752.609 1116.142 L 4504.059 1116.142 C 4580.691 1116.142 4642.907 1168.604 4642.907 1233.223 L 4642.907 1233.223 C 4642.907 1297.841 4580.691 1350.304 4504.059 1350.304 L 3752.609 1350.304 C 3675.977 1350.304 3613.761 1297.841 3613.761 1233.223 L 3613.761 1233.223 C 3613.761 1168.604 3675.977 1116.142 3752.609 1116.142 Z" style="stroke:none;fill:#FBC97E;stroke-miterlimit:10;"/><path d="M 4342.649 846.433 L 4978.967 846.433 C 5020.883 846.433 5054.913 879.222 5054.913 919.608 L 5054.913 919.608 C 5054.913 959.995 5020.883 992.784 4978.967 992.784 L 4342.649 992.784 C 4300.734 992.784 4266.704 959.995 4266.704 919.608 L 4266.704 919.608 C 4266.704 879.222 4300.734 846.433 4342.649 846.433 Z" style="stroke:none;fill:#FBC97E;stroke-miterlimit:10;"/><path d="M 3872.716 648.425 L 4342.649 648.425 C 4370.258 648.425 4392.674 668.098 4392.674 692.33 L 4392.674 692.33 C 4392.674 716.562 4370.258 736.236 4342.649 736.236 L 3872.716 736.236 C 3845.106 736.236 3822.69 716.562 3822.69 692.33 L 3822.69 692.33 C 3822.69 668.098 3845.106 648.425 3872.716 648.425 Z" style="stroke:none;fill:#FBC97E;stroke-miterlimit:10;"/><path d=" M 4245.781 573.175 C 4276.949 568.108 4308.943 565.536 4341.532 565.536 C 4676.742 565.536 4948.89 837.684 4948.89 1172.893 C 4948.89 1508.103 4676.742 1780.251 4341.532 1780.251 C 4308.943 1780.251 4276.949 1777.678 4245.781 1772.612 C 4535.584 1726.737 4757.387 1475.513 4757.387 1172.893 C 4757.387 870.274 4535.584 619.05 4245.781 573.175 Z " fill="rgb(251,201,126)"/><path d="M 4144.795 1491.803 L 4599.25 1491.803 C 4631.131 1491.803 4657.014 1517.687 4657.014 1549.568 L 4657.014 1551.12 C 4657.014 1583.001 4631.131 1608.884 4599.25 1608.884 L 4144.795 1608.884 C 4112.914 1608.884 4087.03 1583.001 4087.03 1551.12 L 4087.03 1549.568 C 4087.03 1517.687 4112.914 1491.803 4144.795 1491.803 Z" style="stroke:none;fill:#D6174A;stroke-miterlimit:10;"/><path d="M 3711.306 1157.445 L 4462.755 1157.445 C 4539.388 1157.445 4601.604 1209.907 4601.604 1274.526 L 4601.604 1274.526 C 4601.604 1339.145 4539.388 1391.607 4462.755 1391.607 L 3711.306 1391.607 C 3634.673 1391.607 3572.457 1339.145 3572.457 1274.526 L 3572.457 1274.526 C 3572.457 1209.907 3634.673 1157.445 3711.306 1157.445 Z" style="stroke:none;fill:#D6174A;stroke-miterlimit:10;"/><path d="M 4311.672 877.41 L 4947.99 877.41 C 4989.905 877.41 5023.935 910.199 5023.935 950.586 L 5023.935 950.586 C 5023.935 990.973 4989.905 1023.762 4947.99 1023.762 L 4311.672 1023.762 C 4269.756 1023.762 4235.726 990.973 4235.726 950.586 L 4235.726 950.586 C 4235.726 910.199 4269.756 877.41 4311.672 877.41 Z" style="stroke:none;fill:#D6174A;stroke-miterlimit:10;"/><path d="M 3852.064 669.077 L 4321.997 669.077 C 4349.607 669.077 4372.022 688.75 4372.022 712.982 L 4372.022 712.982 C 4372.022 737.214 4349.607 756.888 4321.997 756.888 L 3852.064 756.888 C 3824.454 756.888 3802.039 737.214 3802.039 712.982 L 3802.039 712.982 C 3802.039 688.75 3824.454 669.077 3852.064 669.077 Z" style="stroke:none;fill:#D6174A;stroke-miterlimit:10;"/></g></g></svg>