<?xml version="1.0" standalone="no"?><!-- Generator: Gravit.io --><svg xmlns="http://www.w3.org/2000/svg" xmlns:xlink="http://www.w3.org/1999/xlink" style="isolation:isolate" viewBox="504.227 766.996 4539.773 1527.425" width="4539.773" height="1527.425"><g id="stars"><path d=" M 3259.107 815.21 L 3279.618 857.301 L 3325.984 863.801 L 3292.293 896.314 L 3300.438 942.421 L 3259.107 920.425 L 3217.773 942.421 L 3225.919 896.314 L 3192.227 863.801 L 3238.596 857.301 L 3259.107 815.21 Z " fill-rule="evenodd" fill="rgb(237,237,237)"/><path d=" M 2172.214 1779.537 L 2188.158 1812.255 L 2224.199 1817.308 L 2198.01 1842.581 L 2204.342 1878.421 L 2172.214 1861.323 L 2140.085 1878.421 L 2146.417 1842.581 L 2120.227 1817.308 L 2156.271 1812.255 L 2172.214 1779.537 Z " fill-rule="evenodd" fill="rgb(237,237,237)"/><path d=" M 3045.494 2223.537 L 3056.923 2246.991 L 3082.759 2250.613 L 3063.985 2268.73 L 3068.524 2294.421 L 3045.494 2282.165 L 3022.462 2294.421 L 3027.001 2268.73 L 3008.227 2250.613 L 3034.065 2246.991 L 3045.494 2223.537 Z " fill-rule="evenodd" fill="rgb(237,237,237)"/><path d=" M 2348.115 970.938 L 2364.028 1003.593 L 2400 1008.637 L 2373.861 1033.861 L 2380.181 1069.633 L 2348.115 1052.567 L 2316.047 1069.633 L 2322.366 1033.861 L 2296.227 1008.637 L 2332.202 1003.593 L 2348.115 970.938 Z " fill-rule="evenodd" fill="rgb(237,237,237)"/><path d=" M 571.107 1411.21 L 591.618 1453.301 L 637.984 1459.801 L 604.293 1492.314 L 612.438 1538.421 L 571.107 1516.425 L 529.773 1538.421 L 537.919 1492.314 L 504.227 1459.801 L 550.596 1453.301 L 571.107 1411.21 Z " fill-rule="evenodd" fill="rgb(237,237,237)"/><path d=" M 5002.21 766.996 L 5015.027 793.297 L 5044 797.359 L 5022.947 817.676 L 5028.037 846.487 L 5002.21 832.742 L 4976.382 846.487 L 4981.472 817.676 L 4960.419 797.359 L 4989.394 793.297 L 5002.21 766.996 Z " fill-rule="evenodd" fill="rgb(237,237,237)"/><path d=" M 908.115 2183.11 L 920.347 2208.213 L 948 2212.09 L 927.906 2231.481 L 932.764 2258.979 L 908.115 2245.861 L 883.463 2258.979 L 888.321 2231.481 L 868.227 2212.09 L 895.882 2208.213 L 908.115 2183.11 Z " fill-rule="evenodd" fill="rgb(237,237,237)"/><path d=" M 1241.7 1039.537 L 1254.419 1065.638 L 1283.17 1069.669 L 1262.278 1089.83 L 1267.329 1118.421 L 1241.7 1104.781 L 1216.068 1118.421 L 1221.12 1089.83 L 1200.227 1069.669 L 1228.981 1065.638 L 1241.7 1039.537 Z " fill-rule="evenodd" fill="rgb(237,237,237)"/></g></svg>